<svg width="24" height="24" viewBox="0 0 24 24" fill="none" xmlns="http://www.w3.org/2000/svg">
<g clip-path="url(#clip0_1_103)">
<path fill-rule="evenodd" clip-rule="evenodd" d="M3.35961 0.47998C1.76904 0.47998 0.479614 1.7694 0.479614 3.35998V19.2C0.479614 21.5858 2.41375 23.52 4.79961 23.52C7.18549 23.52 9.11961 21.5858 9.11961 19.2V3.35998C9.11961 1.7694 7.8302 0.47998 6.23961 0.47998H3.35961ZM4.79961 20.64C5.5949 20.64 6.23961 19.9953 6.23961 19.2C6.23961 18.4047 5.5949 17.76 4.79961 17.76C4.00432 17.76 3.35961 18.4047 3.35961 19.2C3.35961 19.9953 4.00432 20.64 4.79961 20.64Z" fill="#FFC147"/>
<path d="M11.9996 18.1093L19.0549 11.054C20.1796 9.9293 20.1796 8.10578 19.0549 6.98107L17.0184 4.94461C15.8938 3.8199 14.0702 3.8199 12.9455 4.94461L11.9996 5.89046V18.1093Z" fill="#FFC147"/>
<path d="M20.6397 23.52H10.662L19.302 14.88H20.6397C22.2303 14.88 23.5197 16.1694 23.5197 17.76V20.64C23.5197 22.2306 22.2303 23.52 20.6397 23.52Z" fill="#FFC147"/>
</g>
<defs>
<clipPath id="clip0_1_103">
<rect width="24" height="24" fill="white" transform="translate(-0.000244141)"/>
</clipPath>
</defs>
</svg>
