<svg width="62" height="63" viewBox="0 0 62 63" fill="none" xmlns="http://www.w3.org/2000/svg">
<rect x="-0.00012207" width="62" height="63" fill="#FFC147"/>
<g clip-path="url(#clip0_1_190)">
<path fill-rule="evenodd" clip-rule="evenodd" d="M21.8799 20C20.2893 20 18.9999 21.2894 18.9999 22.88V38.72C18.9999 41.1058 20.934 43.04 23.3199 43.04C25.7058 43.04 27.6399 41.1058 27.6399 38.72V22.88C27.6399 21.2894 26.3505 20 24.7599 20H21.8799ZM23.3199 40.16C24.1152 40.16 24.7599 39.5152 24.7599 38.72C24.7599 37.9248 24.1152 37.28 23.3199 37.28C22.5246 37.28 21.8799 37.9248 21.8799 38.72C21.8799 39.5152 22.5246 40.16 23.3199 40.16Z" fill="white"/>
<path d="M30.5199 37.6293L37.5752 30.574C38.6998 29.4493 38.6998 27.6258 37.5752 26.5011L35.5387 24.4646C34.414 23.3399 32.5905 23.3399 31.4657 24.4646L30.5199 25.4105V37.6293Z" fill="white"/>
<path d="M39.1599 43.0399H29.1822L37.8222 34.3999H39.1599C40.7505 34.3999 42.0399 35.6893 42.0399 37.2799V40.1599C42.0399 41.7505 40.7505 43.0399 39.1599 43.0399Z" fill="white"/>
</g>
<defs>
<clipPath id="clip0_1_190">
<rect width="24" height="24" fill="white" transform="translate(18.9999 20)"/>
</clipPath>
</defs>
</svg>
