<svg width="24" height="24" viewBox="0 0 24 24" fill="none" xmlns="http://www.w3.org/2000/svg">
<g clip-path="url(#clip0_1_89)">
<path d="M1.33313 17.3334L7.44751 11.219C8.4889 10.1776 10.1773 10.1776 11.2187 11.219L17.3331 17.3334H1.33313ZM14.6665 14.6667L16.7809 12.5523C17.8222 11.5109 19.5107 11.5109 20.5521 12.5523L22.6665 14.6667H14.6665ZM14.6665 6.66671H14.6798H14.6665ZM3.9998 22.6667H19.9998C21.4726 22.6667 22.6665 21.4728 22.6665 20V4.00004C22.6665 2.52728 21.4726 1.33337 19.9998 1.33337H3.9998C2.52704 1.33337 1.33313 2.52728 1.33313 4.00004V20C1.33313 21.4728 2.52704 22.6667 3.9998 22.6667Z" stroke="#FFC147" stroke-width="2" stroke-linecap="round" stroke-linejoin="round"/>
</g>
<defs>
<clipPath id="clip0_1_89">
<rect width="24" height="24" fill="white" transform="translate(-0.000244141)"/>
</clipPath>
</defs>
</svg>
