<svg width="62" height="63" viewBox="0 0 62 63" fill="none" xmlns="http://www.w3.org/2000/svg">
<rect x="-0.00012207" width="62" height="63" fill="#FFC147"/>
<g clip-path="url(#clip0_1_179)">
<path d="M20.4399 21C19.6446 21 18.9999 21.614 18.9999 22.3714C18.9999 23.1288 19.6446 23.7429 20.4399 23.7429H22.1956L22.6356 25.4191C22.6402 25.4385 22.6452 25.4577 22.6507 25.4767L24.6051 32.9222L23.3198 34.1462C21.5055 35.8742 22.7905 38.8286 25.3563 38.8286H37.7198C38.5151 38.8286 39.1598 38.2145 39.1598 37.4571C39.1598 36.6998 38.5151 36.0857 37.7198 36.0857H25.3563L26.7963 34.7143H36.2799C36.8253 34.7143 37.3239 34.4208 37.5678 33.9562L41.8878 25.7276C42.111 25.3025 42.0872 24.7976 41.8248 24.3933C41.5624 23.989 41.099 23.7429 40.5999 23.7429H25.1642L24.7169 22.0388C24.5566 21.4283 23.9806 21 23.3199 21L20.4399 21Z" fill="white"/>
<path d="M39.1599 42.2571C39.1599 43.3932 38.1928 44.3142 36.9999 44.3142C35.807 44.3142 34.8399 43.3932 34.8399 42.2571C34.8399 41.121 35.807 40.2 36.9999 40.2C38.1928 40.2 39.1599 41.121 39.1599 42.2571Z" fill="white"/>
<path d="M25.4799 44.3142C26.6728 44.3142 27.6399 43.3932 27.6399 42.2571C27.6399 41.121 26.6728 40.2 25.4799 40.2C24.287 40.2 23.3199 41.121 23.3199 42.2571C23.3199 43.3932 24.287 44.3142 25.4799 44.3142Z" fill="white"/>
</g>
<defs>
<clipPath id="clip0_1_179">
<rect width="24" height="24" fill="white" transform="translate(18.9999 21)"/>
</clipPath>
</defs>
</svg>
