<svg width="62" height="63" viewBox="0 0 62 63" fill="none" xmlns="http://www.w3.org/2000/svg">
<rect x="-0.00012207" width="62" height="63" fill="#FFC147"/>
<g clip-path="url(#clip0_1_201)">
<path d="M24.0399 35.7091C21.2564 35.7091 18.9999 33.6577 18.9999 31.1273C18.9999 28.7599 20.9748 26.812 23.5085 26.5706C23.3854 26.1446 23.3199 25.6975 23.3199 25.2364C23.3199 22.3444 25.8987 20 29.0799 20C31.7854 20 34.0553 21.6958 34.6736 23.9819C34.9634 23.9459 35.2592 23.9273 35.5599 23.9273C39.1386 23.9273 42.0399 26.5647 42.0399 29.8182C42.0399 33.0716 39.1386 35.7091 35.5599 35.7091H31.9599V31.015L33.8217 32.7075C34.384 33.2188 35.2958 33.2188 35.8581 32.7075C36.4205 32.1963 36.4205 31.3674 35.8581 30.8561L31.5381 26.9289C30.9758 26.4176 30.064 26.4176 29.5016 26.9289L25.1816 30.8561C24.6193 31.3674 24.6193 32.1963 25.1816 32.7075C25.744 33.2188 26.6558 33.2188 27.2181 32.7075L29.0799 31.015V35.7091H24.0399Z" fill="white"/>
<path d="M29.0799 35.709H31.9599V42.2544C31.9599 42.9774 31.3151 43.5635 30.5199 43.5635C29.7246 43.5635 29.0799 42.9774 29.0799 42.2544V35.709Z" fill="white"/>
</g>
<defs>
<clipPath id="clip0_1_201">
<rect width="24" height="24" fill="white" transform="translate(18.9999 20)"/>
</clipPath>
</defs>
</svg>
