<svg width="24" height="24" viewBox="0 0 24 24" fill="none" xmlns="http://www.w3.org/2000/svg">
<g clip-path="url(#clip0_1_95)">
<path fill-rule="evenodd" clip-rule="evenodd" d="M0.799988 2.99995C0.799988 2.00584 1.51634 1.19995 2.39999 1.19995H21.6C22.4836 1.19995 23.2 2.00584 23.2 2.99995C23.2 3.99406 22.4836 4.79995 21.6 4.79995H2.39999C1.51634 4.79995 0.799988 3.99406 0.799988 2.99995Z" fill="#FFC147"/>
<path fill-rule="evenodd" clip-rule="evenodd" d="M0.799988 12C0.799988 11.0058 1.51634 10.2 2.39999 10.2H21.6C22.4836 10.2 23.2 11.0058 23.2 12C23.2 12.9941 22.4836 13.8 21.6 13.8H2.39999C1.51634 13.8 0.799988 12.9941 0.799988 12Z" fill="#FFC147"/>
<path fill-rule="evenodd" clip-rule="evenodd" d="M0.799988 21C0.799988 20.0058 1.51634 19.2 2.39999 19.2H12C12.8836 19.2 13.6 20.0058 13.6 21C13.6 21.994 12.8836 22.7999 12 22.7999H2.39999C1.51634 22.7999 0.799988 21.994 0.799988 21Z" fill="#FFC147"/>
</g>
<defs>
<clipPath id="clip0_1_95">
<rect width="24" height="24" fill="white" transform="translate(-0.00012207)"/>
</clipPath>
</defs>
</svg>
