<svg width="18" height="18" viewBox="0 0 18 18" fill="none" xmlns="http://www.w3.org/2000/svg">
<path fill-rule="evenodd" clip-rule="evenodd" d="M1.99976 0H15.9998C17.1044 0 17.9998 0.89543 17.9998 2V16C17.9998 17.1046 17.1044 18 15.9998 18H1.99976C0.895186 18 -0.000244141 17.1046 -0.000244141 16V2C-0.000244141 0.89543 0.895186 0 1.99976 0ZM4.99976 15C5.2759 15 5.49976 14.7761 5.49976 14.5V7.5C5.49976 7.2239 5.2759 7 4.99976 7H3.49976C3.22362 7 2.99976 7.2239 2.99976 7.5V14.5C2.99976 14.7761 3.22362 15 3.49976 15H4.99976ZM4.24976 6C3.42133 6 2.74976 5.32843 2.74976 4.5C2.74976 3.67157 3.42133 3 4.24976 3C5.07819 3 5.74976 3.67157 5.74976 4.5C5.74976 5.32843 5.07819 6 4.24976 6ZM14.4998 15C14.7759 15 14.9998 14.7761 14.9998 14.5V9.9C15.0323 8.3108 13.8574 6.95452 12.2798 6.76C11.1768 6.65925 10.1081 7.1744 9.49976 8.1V7.5C9.49976 7.2239 9.27586 7 8.99976 7H7.49976C7.22366 7 6.99976 7.2239 6.99976 7.5V14.5C6.99976 14.7761 7.22366 15 7.49976 15H8.99976C9.27586 15 9.49976 14.7761 9.49976 14.5V10.75C9.49976 9.9216 10.1714 9.25 10.9998 9.25C11.8282 9.25 12.4998 9.9216 12.4998 10.75V14.5C12.4998 14.7761 12.7237 15 12.9998 15H14.4998Z" fill="black"/>
</svg>
