<svg width="18" height="18" viewBox="0 0 18 18" fill="none" xmlns="http://www.w3.org/2000/svg">
<path fill-rule="evenodd" clip-rule="evenodd" d="M12.9998 0H4.99976C2.23834 0 -0.000244141 2.23858 -0.000244141 5V13C-0.000244141 15.7614 2.23834 18 4.99976 18H12.9998C15.7612 18 17.9998 15.7614 17.9998 13V5C17.9998 2.23858 15.7612 0 12.9998 0ZM16.2498 13C16.2443 14.7926 14.7924 16.2445 12.9998 16.25H4.99976C3.20711 16.2445 1.75525 14.7926 1.74976 13V5C1.75525 3.20735 3.20711 1.75549 4.99976 1.75H12.9998C14.7924 1.75549 16.2443 3.20735 16.2498 5V13ZM13.7498 5.25C14.3021 5.25 14.7498 4.80228 14.7498 4.25C14.7498 3.69772 14.3021 3.25 13.7498 3.25C13.1975 3.25 12.7498 3.69772 12.7498 4.25C12.7498 4.80228 13.1975 5.25 13.7498 5.25ZM8.99976 4.5C6.51448 4.5 4.49976 6.51472 4.49976 9C4.49976 11.4853 6.51448 13.5 8.99976 13.5C11.4851 13.5 13.4998 11.4853 13.4998 9C13.5025 7.8057 13.0292 6.65957 12.1847 5.81508C11.3402 4.97059 10.1941 4.49734 8.99976 4.5ZM6.24976 9C6.24976 10.5188 7.48096 11.75 8.99976 11.75C10.5186 11.75 11.7498 10.5188 11.7498 9C11.7498 7.4812 10.5186 6.25 8.99976 6.25C7.48096 6.25 6.24976 7.4812 6.24976 9Z" fill="black"/>
</svg>
