<svg width="18" height="16" viewBox="0 0 18 16" fill="none" xmlns="http://www.w3.org/2000/svg">
<path d="M17.9726 2.7174C17.5082 3.33692 16.9468 3.87733 16.3101 4.31776C16.3101 4.47959 16.3101 4.64142 16.3101 4.81225C16.3152 7.7511 15.1413 10.5691 13.0516 12.6345C10.9618 14.6999 8.13096 15.8399 5.19381 15.7989C3.49575 15.8046 1.81943 15.4169 0.296178 14.6661C0.214038 14.6302 0.161068 14.549 0.161378 14.4593V14.3604C0.161378 14.2313 0.265988 14.1267 0.395028 14.1267C2.06418 14.0716 3.67378 13.4929 4.9961 12.4724C3.48529 12.4419 2.12595 11.5469 1.50036 10.1707C1.46877 10.0956 1.4786 10.0093 1.52633 9.9432C1.57405 9.8771 1.65276 9.8407 1.73401 9.8471C2.19318 9.8932 2.65694 9.8505 3.09996 9.7212C1.43215 9.375 0.178968 7.9904 -0.000382073 6.2957C-0.00675207 6.2144 0.0296778 6.1357 0.0957578 6.0879C0.161828 6.0402 0.247998 6.0303 0.323138 6.062C0.770698 6.2595 1.25385 6.3635 1.743 6.3676C0.281598 5.40846 -0.349632 3.58405 0.206308 1.92622C0.263698 1.76513 0.401568 1.64612 0.569258 1.61294C0.736938 1.57975 0.909718 1.63728 1.02408 1.76439C2.99615 3.86325 5.7058 5.11396 8.58166 5.25279C8.50806 4.95885 8.47186 4.65676 8.47386 4.35372C8.50076 2.76472 9.48396 1.34921 10.9632 0.769872C12.4423 0.190542 14.1247 0.562032 15.2228 1.71044C15.9712 1.56785 16.6948 1.31645 17.3705 0.964212C17.42 0.933312 17.4828 0.933312 17.5323 0.964212C17.5632 1.01373 17.5632 1.07652 17.5323 1.12604C17.205 1.87552 16.6521 2.50412 15.9507 2.92419C16.5649 2.85296 17.1683 2.70807 17.748 2.49264C17.7968 2.45942 17.8609 2.45942 17.9097 2.49264C17.9506 2.51134 17.9812 2.54711 17.9933 2.59042C18.0054 2.63373 17.9978 2.68018 17.9726 2.7174Z" fill="black"/>
</svg>
