<svg width="24" height="24" viewBox="0 0 24 24" fill="none" xmlns="http://www.w3.org/2000/svg">
<path d="M20.9726 6.7174C20.5082 7.33692 19.9468 7.87733 19.3101 8.31776C19.3101 8.47959 19.3101 8.64142 19.3101 8.81225C19.3152 11.7511 18.1413 14.5691 16.0516 16.6345C13.9618 18.6999 11.131 19.8399 8.19381 19.7989C6.49575 19.8046 4.81943 19.4169 3.29618 18.6661C3.21404 18.6302 3.16107 18.549 3.16138 18.4593V18.3604C3.16138 18.2313 3.26599 18.1267 3.39503 18.1267C5.06418 18.0716 6.67378 17.4929 7.9961 16.4724C6.48529 16.4419 5.12595 15.5469 4.50036 14.1707C4.46877 14.0956 4.4786 14.0093 4.52633 13.9432C4.57405 13.8771 4.65276 13.8407 4.73401 13.8471C5.19318 13.8932 5.65694 13.8505 6.09996 13.7212C4.43215 13.375 3.17897 11.9904 2.99962 10.2957C2.99325 10.2144 3.02968 10.1357 3.09576 10.0879C3.16183 10.0402 3.248 10.0303 3.32314 10.062C3.7707 10.2595 4.25385 10.3635 4.743 10.3676C3.2816 9.40846 2.65037 7.58405 3.20631 5.92622C3.2637 5.76513 3.40157 5.64612 3.56926 5.61294C3.73694 5.57975 3.90972 5.63728 4.02408 5.76439C5.99615 7.86325 8.7058 9.11396 11.5817 9.25279C11.5081 8.95885 11.4719 8.65676 11.4739 8.35372C11.5008 6.76472 12.484 5.34921 13.9632 4.76987C15.4423 4.19054 17.1247 4.56203 18.2228 5.71044C18.9712 5.56785 19.6948 5.31645 20.3705 4.96421C20.42 4.93331 20.4828 4.93331 20.5323 4.96421C20.5632 5.01373 20.5632 5.07652 20.5323 5.12604C20.205 5.87552 19.6521 6.50412 18.9507 6.92419C19.5649 6.85296 20.1683 6.70807 20.748 6.49264C20.7968 6.45942 20.8609 6.45942 20.9097 6.49264C20.9506 6.51134 20.9812 6.54711 20.9933 6.59042C21.0054 6.63373 20.9978 6.68018 20.9726 6.7174Z" fill="black"/>
</svg>
